PathFileType	4	(X/Y/Z)	C:/Users/beibeiliu/ov580/test_trc/User2\sequence.23_training_dense_left.trc
DataRate	CameraRate	NumFrames	NumMarkers	Units	OrigDataRate	OrigDataStartFrame	OrigNumFrames
120	120	21	19	mm	120	129	257
Frame#	Time	ThumbCMC			ThumbMCP			ThumbIP			ThumbTip			IndexMCP			IndexPIP			IndexTip			MiddleMCP			MiddlePIP			MiddleTip			RingMCP			RingPIP			RingTip			PinkyMCP			PinkyPIP			PinkyTip			BackHand1			BackHand2			BackHand3	
		X0	Y0	Z0	X1	Y1	Z1	X2	Y2	Z2	X3	Y3	Z3	X4	Y4	Z4	X5	Y5	Z5	X6	Y6	Z6	X7	Y7	Z7	X8	Y8	Z8	X9	Y9	Z9	X10	Y10	Z10	X11	Y11	Z11	X12	Y12	Z12	X13	Y13	Z13	X14	Y14	Z14	X15	Y15	Z15	X16	Y16	Z16	X17	Y17	Z17	X18	Y18	Z18	
128	1.06667	-198.707	-25.1111	58.4714	-180.301	-33.2128	24.1481	-165.96	-60.2266	1.9887	-153.335	-76.4154	-11.6367	-221.565	-84.4899	6.95396	-219.155	-94.0048	-20.2902	-217.295	-102.159	-43.5926	-200.341	-109.213	10.5635	-189.688	-120.014	-14.4922	-173.189	-134.154	-36.7923	-164.946	-100.451	20.2425	-143.823	-81.7399	15.3859	-142.54	-48.7423	37.4791	-156.311	-102.106	41.8247	-137.999	-70.9238	41.399	-159.156	-53.1967	63.1375	-200.516	-93.4828	77.6065	-201.387	-74.1154	109.497	-221.315	-57.4003	79.2206	
129	1.075	-202.804	-28.0813	57.2158	-183.588	-37.9972	24.8968	-168.135	-65.5406	1.77629	-155.554	-78.9554	-7.59972	-224.343	-88.0528	9.40017	-221.242	-101.96	-19.0768	-218.998	-112.481	-39.5629	-198.501	-114.361	17.8636	-186.31	-125.537	-10.8322	-171.421	-139.931	-32.8758	-165.107	-103.102	23.3566	-143.469	-82.3118	16.0612	-144.2	-51.1454	35.7204	-152.365	-103.269	43.4406	-141.299	-70.1919	39.519	-160.011	-51.6659	62.0115	-199.966	-95.1611	80.963	-202.494	-73.8608	109.454	-222.729	-61.2109	77.4123	
130	1.08333	-206.166	-33.0243	56.4902	-188.123	-43.2366	22.549	-169.547	-67.2989	2.1732	-156.622	-82.6903	-10.7765	-225.298	-93.5354	11.7241	-221.271	-109.535	-13.3459	-217.026	-124.304	-37.4602	-199.692	-116.787	17.5386	-185.417	-129.032	-6.14117	-170.33	-141.648	-29.4496	-167.787	-108.104	27.5744	-147.718	-80.8379	13.2828	-148.554	-50.5319	33.9614	-153.004	-100.897	42.2458	-143.772	-70.7414	38.8554	-160.286	-53.5652	62.0896	-198.571	-100.394	81.4247	-199.16	-75.4498	109.953	-223.099	-63.6551	81.6928	
131	1.09167	-206.367	-34.0977	59.0071	-188.6	-44.4323	25.2125	-171.076	-65.8689	2.94069	-155.999	-84.0837	-8.22813	-223.402	-100.036	11.8269	-220.586	-111.879	-9.09019	-213.449	-128.895	-31.1748	-197.624	-121.07	18.9935	-183.288	-131.9	-5.00705	-165.245	-146.149	-28.2059	-166.644	-109.016	26.9396	-145.298	-86.3452	14.0873	-146.678	-56.1829	31.8409	-154.642	-101.48	43.3084	-142.851	-70.5192	40.2589	-161.27	-52.2809	64.2017	-195.46	-99.3549	85.4694	-201.625	-75.8734	111.048	-221.99	-66.2669	83.4931	
132	1.1	-208.093	-36.4242	57.4685	-189.126	-45.3741	22.0149	-172.048	-69.4338	1.81062	-157.229	-83.3151	-8.96986	-221.162	-102.955	14.5998	-217.126	-117.974	-8.20118	-213.188	-131.392	-30.4439	-195.782	-122.45	19.2113	-179.709	-134.378	-3.49247	-162.78	-148.084	-28.3734	-169.08	-110.206	24.0636	-146.511	-88.125	13.4845	-151.016	-57.0725	27.8351	-153.794	-102.129	43.502	-145.198	-69.4835	39.1336	-163.405	-55.4096	62.6902	-195.883	-99.043	82.0431	-200.489	-73.5282	113.5	-224.537	-70.1994	79.081	
133	1.10833	-209.618	-35.8619	54.8888	-190.411	-43.2084	23.5562	-171.597	-68.013	3.59379	-156.54	-87.3015	-11.3059	-222.483	-102.651	15.5407	-215.751	-118.227	-7.38003	-211.401	-134.033	-31.6486	-195.017	-122.5	21.9252	-181.955	-132.894	-4.66441	-162.189	-146.891	-24.8158	-166.564	-114.425	30.4027	-149.489	-91.9267	11.9724	-152.868	-57.6133	28.8501	-149.353	-103.271	45.8585	-141.691	-70.9656	39.0947	-162.984	-56.4686	57.7792	-196.378	-98.0295	87.2385	-199.062	-75.5016	113.618	-222.209	-70.058	83.4817	
134	1.11667	-207.945	-35.2496	58.4447	-189.112	-48.8261	25.5516	-171.151	-70.3769	4.64411	-155.724	-85.9606	-8.12382	-220.587	-105.053	16.8554	-217.754	-119.003	-11.5991	-208.095	-134.78	-28.7558	-195.376	-122.612	21.2206	-179.472	-133.942	-0.524481	-161.57	-145.179	-28.9746	-165.051	-114.216	29.6503	-148.035	-90.6752	11.8537	-150.681	-57.3972	30.9582	-146.362	-102.407	43.2269	-145.788	-68.9877	37.2805	-166.229	-56.0601	57.911	-192.617	-100.574	83.4634	-200.183	-78.7428	110.452	-223.514	-72.0377	81.5319	
135	1.125	-208.94	-34.9722	60.115	-190.069	-45.4687	25.5195	-170.273	-71.1869	4.1257	-155.153	-86.0128	-10.4753	-217.721	-108.968	14.0741	-211.644	-123.852	-8.24123	-204.529	-139.344	-28.9574	-192.348	-123.314	22.4446	-178.065	-133.165	-1.74028	-154.113	-147.558	-26.9293	-165.146	-111.535	25.7367	-143.762	-88.526	13.4042	-151.602	-56.7401	28.5753	-149.182	-102.924	47.0903	-143.161	-68.2471	38.4519	-163.137	-54.1256	59.0064	-192.855	-99.7589	85.2781	-193.417	-81.2007	112.172	-221.134	-72.5209	82.5246	
136	1.13333	-206.504	-41.7303	59.4759	-189.382	-50.2971	25.1415	-170.998	-68.4299	3.58177	-154.646	-87.96	-9.36485	-215.509	-110.846	14.5638	-208.808	-125.717	-5.51445	-201.147	-140.558	-25.5909	-189.291	-124.88	22.3968	-173.754	-134.994	-3.02157	-154.956	-146.044	-28.4824	-161.381	-112.951	30.103	-144.445	-92.9306	13.3292	-148.94	-56.5628	29.4742	-143.699	-100.775	43.5854	-139.882	-68.7493	39.2892	-165.937	-54.7224	60.4457	-190.913	-98.2404	86.7097	-192.735	-80.8515	113.81	-218.07	-75.5681	83.7054	
137	1.14167	-206.645	-42.5251	60.4817	-189.103	-47.6409	26.557	-167.898	-72.02	6.82337	-151.103	-88.8793	-4.92218	-212.705	-109.916	18.6531	-206.926	-124.631	-7.92227	-198.299	-139.931	-28.8541	-186.059	-122.537	25.6572	-168.435	-135.041	-2.40911	-147.457	-146.458	-22.9583	-156.828	-113.543	32.9734	-138.45	-91.5902	15.8741	-148.836	-55.4501	28.5906	-141.943	-99.7057	45.7505	-140.262	-66.6623	40.0311	-162.086	-54.2434	56.7967	-188.256	-100.15	87.6264	-191.044	-78.6405	114.055	-219.116	-75.9283	82.7558	
138	1.15	-205.752	-39.5713	61.72	-187.059	-47.9	28.6133	-165.295	-72.854	4.16948	-148.198	-86.9382	-5.31402	-208.292	-111.653	16.3599	-199.092	-126.979	-6.72899	-191.218	-141.016	-30.3653	-178.262	-125.264	24.3265	-161.692	-133.805	-1.61297	-143.191	-144.253	-22.188	-155.097	-111.922	32.7072	-137.997	-88.2563	14.8643	-142.709	-56.1345	30.1797	-140.731	-97.2078	44.5077	-137.888	-64.0842	40.8288	-159.924	-53.1197	57.4952	-184.128	-104.036	86.4629	-191.315	-76.9836	115.185	-217.283	-77.0578	80.8103	
139	1.15833	-206.418	-39.9236	57.7607	-185.78	-49.1222	26.0642	-162.92	-71.2516	8.20028	-146.466	-84.3834	0.0753021	-205.908	-109.806	13.5956	-196.515	-124.066	-10.1693	-185.144	-137.208	-27.4424	-172.009	-124.48	23.731	-158.4	-130.364	2.17004	-139.805	-139.719	-21.9972	-149.054	-107.677	31.1742	-132.563	-81.5948	17.3733	-145.249	-51.242	31.7059	-137.465	-97.2454	50.3425	-133.486	-63.806	42.1857	-157.788	-52.1112	63.4949	-183.126	-98.069	88.1032	-189.659	-81.4107	112.453	-213.196	-75.7523	83.8447	
140	1.16667	-204.407	-39.8031	59.2192	-184.081	-44.8415	26.9688	-160.236	-67.0544	7.56985	-140.835	-84.2057	-2.04476	-198.264	-108.576	14.0396	-189.149	-122.724	-10.0508	-178.393	-135.305	-28.7586	-171.938	-118.235	23.8837	-151.762	-127.022	1.11576	-131.838	-135.704	-24.6828	-147.109	-104.58	30.7258	-131.09	-75.914	17.283	-144.057	-47.7127	33.3941	-133.312	-92.5576	49.4663	-131.498	-60.0377	43.7509	-155.579	-50.2143	59.7629	-180.591	-97.1625	86.4349	-189.942	-75.4841	114.611	-215.252	-76.3247	79.4964	
141	1.175	-203.23	-34.8778	58.4986	-180.399	-42.7106	29.1514	-157.737	-61.1383	5.82509	-139.008	-75.7096	1.00077	-197.365	-101.626	12.5808	-186.78	-114.238	-9.27431	-174.736	-128.569	-34.8398	-167.479	-115.277	24.2477	-148.211	-122.249	-5.14817	-128.963	-129.554	-24.5805	-139.46	-100.575	31.2667	-125.405	-74.7025	21.4681	-136.252	-45.8218	36.7759	-127.545	-89.0451	48.5847	-126.64	-57.8485	44.5	-155.367	-44.5497	63.9442	-178.061	-97.2194	82.7889	-188.447	-78.6107	111.864	-209.682	-72.7836	80.0899	
142	1.18333	-201.405	-28.7137	59.4808	-177.007	-37.5092	29.5367	-152.398	-56.458	8.51713	-133.267	-72.1095	2.53469	-193.354	-97.0009	11.1881	-179.429	-109.308	-11.6084	-166.782	-118.906	-33.2052	-164.132	-109.301	18.7813	-142.412	-116.168	-1.77344	-118.163	-122.687	-24.4751	-140.634	-95.7547	31.2125	-121.519	-69.8866	22.9078	-139.254	-38.5187	38.4453	-124.225	-85.5266	50.0424	-125.7	-53.8567	44.9167	-148.05	-39.6444	65.9701	-178.064	-93.2886	82.8283	-186.773	-78.1521	111.975	-208.239	-70.3961	80.5183	
143	1.19167	-198.662	-26.9562	60.5167	-172.807	-32.9648	32.9656	-148.707	-49.0355	11.1166	-129.02	-64.8571	3.43163	-188.048	-88.6197	7.85731	-175.623	-98.3334	-14.7742	-160.616	-105.649	-38.5812	-157.548	-105.04	18.2632	-136.326	-109.382	-4.52783	-115.851	-113.145	-28.435	-136.541	-90.5762	31.7689	-117.469	-60.7954	24.5583	-130.585	-35.2557	39.9118	-124.16	-82.8162	53.4952	-122.398	-48.3827	47.7238	-147.689	-36.8541	70.4872	-177.762	-91.5748	79.4248	-185.38	-75.6479	111.615	-204.857	-66.6807	78.8305	
144	1.2	-194.831	-21.6147	62.8314	-169.771	-26.5227	31.0994	-144.185	-43.1117	11.6532	-123.935	-57.7731	0.0478732	-184.71	-80.7331	6.18948	-171.796	-85.8877	-20.16	-155.55	-92.9467	-44.9833	-157.044	-98.0168	17.9711	-136.092	-101.471	-4.03464	-112.716	-103.771	-30.3416	-131.842	-82.5353	27.3636	-115.845	-59.3728	23.3984	-129.588	-29.4051	46.5053	-125.042	-76.2729	51.5532	-120.293	-41.8762	52.6648	-142.03	-32.3806	70.279	-175.932	-86.6638	78.4545	-186.237	-73.0354	110.347	-204.421	-62.8643	74.1211	
145	1.20833	-190.65	-17.0944	59.5446	-163.793	-20.0901	33.5141	-137.494	-38.2036	12.842	-118.701	-50.8657	2.50851	-179.663	-72.3827	0.355003	-168.158	-76.9494	-20.6929	-153.285	-81.5321	-43.3567	-155.15	-91.0197	16.4741	-132.796	-95.139	-5.33464	-108.796	-98.1482	-32.2223	-134.366	-79.7048	28.7762	-112.347	-54.0607	26.3475	-129.203	-28.6105	48.6774	-117.5	-72.9243	49.827	-114.929	-40.9537	55.2582	-139.619	-31.0123	74.3923	-173.218	-83.1597	78.1191	-185.948	-71.6619	108.883	-203.817	-55.4366	74.1908	
146	1.21667	-181.155	-10.7733	66.0343	-154.7	-13.564	38.6104	-130.221	-26.4699	14.3002	-113.556	-44.866	6.95554	-176.645	-59.9379	-0.414393	-166.063	-60.4228	-23.1208	-146.946	-68.6604	-49.9806	-158.576	-81.2252	10.3223	-133.416	-86.8453	-9.45395	-109.617	-89.9626	-30.9434	-130.927	-75.257	25.1758	-109.298	-49.2829	29.6396	-123.098	-30.1353	52.1098	-120.234	-73.7506	50.1827	-112.797	-42.7146	54.5569	-138.277	-29.8377	73.993	-176.558	-76.9683	74.0752	-188.213	-67.3604	103.839	-202.586	-48.9026	73.4272	
147	1.225	-170.827	-2.76912	67.5026	-143.56	-5.35903	40.2629	-124.923	-28.2275	20.0541	-108.117	-42.0035	3.80394	-177.223	-41.8092	-1.9465	-163.049	-46.9697	-25.0398	-146.657	-53.3338	-47.7152	-159.236	-72.5811	7.46082	-139.096	-77.6766	-13.3389	-114.958	-83.4089	-33.4162	-134.708	-73.3073	26.4183	-110.672	-50.7357	31.3947	-126.034	-32.8695	60.5248	-123.943	-77.3486	47.5843	-113.066	-45.388	58.3407	-136.356	-33.5779	78.819	-180.567	-72.7686	68.3513	-192.063	-57.0538	103.538	-199.636	-31.6746	71.5207	
148	1.23333	-159.209	3.9605	73.8054	-133.893	-7.35173	43.9419	-119.213	-27.8295	20.4699	-105.458	-43.9532	3.05826	-174.591	-28.8862	0.71434	-161.651	-35.8052	-23.955	-144.876	-44.8122	-48.8691	-166.84	-57.5624	3.12957	-145.17	-67.6994	-19.0729	-121.443	-80.5545	-38.3241	-139.383	-70.9089	24.3157	-113.532	-55.5839	33.6781	-130.644	-34.8404	60.6263	-134.963	-78.0001	43.3252	-115.461	-53.1864	57.9521	-136.573	-39.2798	80.7476	-187.313	-62.4655	64.5097	-196.077	-47.4582	101.92	-195.564	-21.5527	72.3255	
